<svg width="24" height="24" viewBox="0 0 24 24" fill="none" xmlns="http://www.w3.org/2000/svg">
<path d="M15.6667 1H8.33333V6.5H15.6667V1ZM4.66667 19.3333V21.1667H2.83333V19.3333H4.66667ZM6.5 17.5H1V23H6.5V17.5ZM21.1667 19.3333V21.1667H19.3333V19.3333H21.1667ZM23 17.5H17.5V23H23V17.5ZM12.9167 11.0833V8.33333H11.0833V11.0833H2.83333V15.6667H4.66667V12.9167H11.0833V15.6667H12.9167V12.9167H19.3333V15.6667H21.1667V11.0833H12.9167ZM12.9167 19.3333V21.1667H11.0833V19.3333H12.9167ZM14.75 17.5H9.25V23H14.75V17.5Z" fill="white"/>
</svg>
